# xmcd CD database file
#
# Track frame offsets:
#	150
#	11592
#	25970
#	43832
#	59232
#	73497
#	86227
#	99182
#	113415
#	128855
#	145167
#
# Disc length: 2172 seconds
#
# Revision: 9
# Processed by: cddbd v1.5.2PL0 Copyright (c) Steve Scherf et al.
# Submitted via: CDex 1.79
#
DISCID=9e087a0b
DTITLE=Lorrie Morgan - Greater Need
DYEAR=1996
DGENRE=Country
TTITLE0=Soldier Of Love
TTITLE1=I Just Might Be
TTITLE2=Greater Need
TTITLE3=Steppin' Stones (featuring Vince Gill and Travis Tritt)
TTITLE4=I Can Buy My Own Roses
TTITLE5=Don't Stop In My World
TTITLE6=By My Side (featuring Jon Randall)
TTITLE7=Reading My Heart
TTITLE8=Good As I Was To You
TTITLE9=She Walked Beside The Wagon
TTITLE10=Back Among The Living
EXTD=YEAR: 1996
EXTT0=
EXTT1=
EXTT2=
EXTT3=
EXTT4=
EXTT5=
EXTT6=
EXTT7=
EXTT8=
EXTT9=
EXTT10=
PLAYORDER=
